# xmcd
#
# Track frame offsets: 
#        150
#        51287
#        103141
#        157977
#        202440
#
# Disc length: 3260 seconds
#
# Revision: 0
# Processed by: cddbd v1.5.2PL0 Copyright (c) Steve Scherf et al.
# Submitted via: ExactAudioCopy v1.0b4
#
DISCID=460cba05
DTITLE=Bo Diddley and Co - Live (LP)
DYEAR=1900
DGENRE=Blues
TTITLE0=He' s A Hell Of A Man
TTITLE1=Don' t Handle The Merchandise
TTITLE2=Get Down
TTITLE3=Bad Dad
TTITLE4=Can I Put My Finger In It
EXTD=
EXTT0=
EXTT1=
EXTT2=
EXTT3=
EXTT4=
PLAYORDER=
